<?xml version="1.0" encoding="UTF-8"?>
<svg id="Capa_1" data-name="Capa 1" xmlns="http://www.w3.org/2000/svg" viewBox="0 0 1080 1080">
  <defs>
    <style>
      .cls-1 {
        fill: #be4492;
      }

      .cls-1, .cls-2 {
        stroke-width: 0px;
      }

      .cls-2 {
        fill: #aeca0d;
      }
    </style>
  </defs>
  <g>
    <path class="cls-1" d="M433.17,157.13c42.13-15.82,89.35,3.95,86.77,74.9-1.05,25.02,6.94,82.57,20.02,96.78,13.16-14.21,21.15-71.75,20.1-96.78-2.58-70.95,44.63-90.72,86.77-74.9,35.51,14.45,45.93,55.13,26.31,95.89-14.21,30.51-39.31,51.9-69.58,66.67-19.53,9.52-41.33,16.14-63.6,20.58-22.2-4.44-43.99-11.06-63.6-20.58-30.11-14.77-55.29-36.16-69.41-66.67-19.69-40.68-9.2-81.44,26.31-95.89h-.08Z"/>
    <path class="cls-1" d="M154.95,441.08c7.34-44.39,48.11-75.39,108.24-37.69,21.15,13.4,74.98,35.27,93.79,31.07-5.73-18.48-51.58-54.24-73.69-65.78-62.71-33.25-56.26-84.02-21.47-112.6,30.27-23.49,70.71-12.19,96.13,25.18,19.29,27.52,25.26,59.97,22.92,93.55-1.53,21.71-6.62,43.83-13.96,65.38-14.93,17.03-31.56,32.53-49.64,44.8-27.85,18.73-58.92,29.78-92.42,26.8-45.12-3.31-75.14-32.77-69.9-70.71h0Z"/>
    <path class="cls-1" d="M261.82,823.99c-34.79-28.57-41.24-79.34,21.47-112.6,22.2-11.62,68.04-47.3,73.77-65.7-18.89-4.28-72.72,17.51-93.87,30.91-60.21,37.69-100.89,6.7-108.24-37.69-5.25-37.94,24.78-67.4,69.9-70.71,33.5-2.99,64.57,8.07,92.5,26.88,18,12.19,34.63,27.68,49.64,44.8,7.26,21.47,12.43,43.59,13.96,65.38,2.26,33.5-3.71,65.94-23,93.47-25.42,37.37-65.94,48.67-96.13,25.18v.08Z"/>
    <path class="cls-1" d="M646.83,922.95c-42.13,15.82-89.35-3.96-86.77-74.9,1.05-25.02-6.94-82.57-20.02-96.78-13.16,14.21-21.15,71.75-20.1,96.78,2.58,70.95-44.63,90.72-86.77,74.9-35.51-14.45-45.93-55.13-26.31-95.89,14.21-30.51,39.31-51.9,69.58-66.67,19.53-9.52,41.33-16.14,63.6-20.58,22.2,4.44,43.99,11.06,63.6,20.58,30.11,14.77,55.29,36.16,69.41,66.67,19.69,40.68,9.2,81.44-26.31,95.89h.08Z"/>
    <path class="cls-1" d="M925.05,638.92c-7.34,44.39-48.11,75.39-108.24,37.69-21.15-13.4-74.98-35.27-93.79-31.07,5.73,18.48,51.58,54.24,73.69,65.78,62.71,33.25,56.26,84.02,21.47,112.6-30.27,23.49-70.71,12.19-96.13-25.18-19.29-27.52-25.26-59.97-22.92-93.55,1.53-21.71,6.62-43.83,13.96-65.38,14.93-17.03,31.56-32.53,49.64-44.8,27.85-18.73,58.92-29.78,92.42-26.8,45.12,3.31,75.14,32.77,69.9,70.71h0Z"/>
    <path class="cls-1" d="M818.18,256.01c34.79,28.57,41.24,79.34-21.47,112.6-22.2,11.62-68.04,47.3-73.77,65.7,18.89,4.28,72.72-17.51,93.87-30.91,60.21-37.69,100.89-6.7,108.24,37.69,5.25,37.94-24.78,67.4-69.9,70.71-33.5,2.99-64.57-8.07-92.5-26.88-18-12.19-34.63-27.68-49.64-44.8-7.26-21.47-12.43-43.59-13.96-65.38-2.26-33.5,3.71-65.94,23-93.47,25.42-37.37,65.94-48.67,96.13-25.18v-.08Z"/>
  </g>
  <path class="cls-2" d="M708.01,528.98v-.32c-6.38-58.68-41.97-97.5-92.66-120.18-22.52-10.09-48.11-17.03-75.31-21.15-27.36,4.04-52.87,10.98-75.47,21.15-50.69,22.76-86.28,61.42-92.66,120.02v.16c-1.05,10.25-1.29,21.15-.48,32.69,5.17,90.96,87.49,129.71,168.61,134.39,81.12-4.68,163.37-43.59,168.53-134.39.81-11.46.56-22.28-.48-32.45l-.08.08ZM472.56,544.16c-.81-51.9,22.68-97.1,67.4-126.08,44.72,29.06,68.2,74.18,67.32,126.08-.89,60.94-27.68,100-67.32,117.84-39.55-17.68-66.51-56.9-67.4-117.84Z"/>
  <circle class="cls-1" cx="540" cy="540.04" r="28.81"/>
  <circle class="cls-2" cx="540" cy="94.42" r="28.81"/>
  <circle class="cls-2" cx="540" cy="985.58" r="28.81"/>
</svg>